# xmcd
#
# Track frame offsets:
#	150
#	12196
#	25202
#	37248
#	54066
#	68126
#	77926
#	89938
#	100103
#	109022
#	133765
#
# Disc length: 2005 seconds
#
# Revision: 1
# Processed by: cddbd v1.5.2PL0 Copyright (c) Steve Scherf et al.
# Submitted via: audiograbber 1.83.01
#
DISCID=9007d30b
DTITLE=Byrds - Reunion
DYEAR=1973
DGENRE=Country Rock
TTITLE0=Full Circle
TTITLE1=Sweet Mary
TTITLE2=Changing Heart
TTITLE3=For Free
TTITLE4=Born To Rock 'n' Roll
TTITLE5=Things Will Be Better
TTITLE6=Cowgirl In The Sand
TTITLE7=Long Live The King
TTITLE8=Borrowing Time
TTITLE9=Laughing
TTITLE10=See The Sky About To Rain
EXTD=
EXTT0=
EXTT1=
EXTT2=
EXTT3=
EXTT4=
EXTT5=
EXTT6=
EXTT7=
EXTT8=
EXTT9=
EXTT10=
PLAYORDER=
